<svg xmlns="http://www.w3.org/2000/svg" xmlns:xlink="http://www.w3.org/1999/xlink" width="512" zoomAndPan="magnify" viewBox="0 0 384 383.999986" height="512" preserveAspectRatio="xMidYMid meet" version="1.0"><defs><clipPath id="8b28b3e90b"><path d="M 0 0 L 383.40625 0 L 383.40625 381.914062 L 0 381.914062 Z M 0 0 " clip-rule="nonzero"/></clipPath><clipPath id="41ed65ef10"><path d="M 18 0 L 366 0 C 370.773438 0 375.351562 1.894531 378.726562 5.273438 C 382.105469 8.648438 384 13.226562 384 18 L 384 363.914062 C 384 373.855469 375.941406 381.914062 366 381.914062 L 18 381.914062 C 13.226562 381.914062 8.648438 380.019531 5.273438 376.644531 C 1.894531 373.265625 0 368.6875 0 363.914062 L 0 18 C 0 8.058594 8.058594 0 18 0 Z M 18 0 " clip-rule="nonzero"/></clipPath><linearGradient x1="0.00369263" gradientTransform="matrix(1.491855, 0, 0, 1.491855, -0.00550166, 0)" y1="128" x2="257.003679" gradientUnits="userSpaceOnUse" y2="128" id="1db5bd006c"><stop stop-opacity="1" stop-color="rgb(27.099609%, 61.599731%, 63.09967%)" offset="0"/><stop stop-opacity="1" stop-color="rgb(27.052307%, 61.488342%, 62.988281%)" offset="0.015625"/><stop stop-opacity="1" stop-color="rgb(26.960754%, 61.268616%, 62.768555%)" offset="0.03125"/><stop stop-opacity="1" stop-color="rgb(26.869202%, 61.048889%, 62.548828%)" offset="0.046875"/><stop stop-opacity="1" stop-color="rgb(26.776123%, 60.829163%, 62.329102%)" offset="0.0625"/><stop stop-opacity="1" stop-color="rgb(26.68457%, 60.609436%, 62.109375%)" offset="0.078125"/><stop stop-opacity="1" stop-color="rgb(26.593018%, 60.389709%, 61.889648%)" offset="0.09375"/><stop stop-opacity="1" stop-color="rgb(26.499939%, 60.168457%, 61.668396%)" offset="0.109375"/><stop stop-opacity="1" stop-color="rgb(26.408386%, 59.94873%, 61.448669%)" offset="0.125"/><stop stop-opacity="1" stop-color="rgb(26.316833%, 59.729004%, 61.228943%)" offset="0.140625"/><stop stop-opacity="1" stop-color="rgb(26.223755%, 59.509277%, 61.009216%)" offset="0.15625"/><stop stop-opacity="1" stop-color="rgb(26.132202%, 59.289551%, 60.78949%)" offset="0.171875"/><stop stop-opacity="1" stop-color="rgb(26.040649%, 59.069824%, 60.569763%)" offset="0.1875"/><stop stop-opacity="1" stop-color="rgb(25.949097%, 58.848572%, 60.348511%)" offset="0.203125"/><stop stop-opacity="1" stop-color="rgb(25.856018%, 58.628845%, 60.128784%)" offset="0.21875"/><stop stop-opacity="1" stop-color="rgb(25.764465%, 58.409119%, 59.909058%)" offset="0.234375"/><stop stop-opacity="1" stop-color="rgb(25.672913%, 58.189392%, 59.689331%)" offset="0.25"/><stop stop-opacity="1" stop-color="rgb(25.579834%, 57.969666%, 59.469604%)" offset="0.265625"/><stop stop-opacity="1" stop-color="rgb(25.488281%, 57.749939%, 59.249878%)" offset="0.28125"/><stop stop-opacity="1" stop-color="rgb(25.396729%, 57.528687%, 59.030151%)" offset="0.296875"/><stop stop-opacity="1" stop-color="rgb(25.30365%, 57.30896%, 58.808899%)" offset="0.3125"/><stop stop-opacity="1" stop-color="rgb(25.212097%, 57.089233%, 58.589172%)" offset="0.328125"/><stop stop-opacity="1" stop-color="rgb(25.120544%, 56.869507%, 58.369446%)" offset="0.34375"/><stop stop-opacity="1" stop-color="rgb(25.027466%, 56.64978%, 58.149719%)" offset="0.359375"/><stop stop-opacity="1" stop-color="rgb(24.935913%, 56.430054%, 57.929993%)" offset="0.375"/><stop stop-opacity="1" stop-color="rgb(24.84436%, 56.210327%, 57.710266%)" offset="0.390625"/><stop stop-opacity="1" stop-color="rgb(24.751282%, 55.989075%, 57.489014%)" offset="0.40625"/><stop stop-opacity="1" stop-color="rgb(24.659729%, 55.769348%, 57.269287%)" offset="0.421875"/><stop stop-opacity="1" stop-color="rgb(24.568176%, 55.549622%, 57.049561%)" offset="0.4375"/><stop stop-opacity="1" stop-color="rgb(24.475098%, 55.329895%, 56.829834%)" offset="0.453125"/><stop stop-opacity="1" stop-color="rgb(24.383545%, 55.110168%, 56.610107%)" offset="0.46875"/><stop stop-opacity="1" stop-color="rgb(24.291992%, 54.890442%, 56.390381%)" offset="0.484375"/><stop stop-opacity="1" stop-color="rgb(24.198914%, 54.669189%, 56.169128%)" offset="0.5"/><stop stop-opacity="1" stop-color="rgb(24.107361%, 54.449463%, 55.949402%)" offset="0.515625"/><stop stop-opacity="1" stop-color="rgb(24.015808%, 54.229736%, 55.729675%)" offset="0.53125"/><stop stop-opacity="1" stop-color="rgb(23.922729%, 54.01001%, 55.509949%)" offset="0.546875"/><stop stop-opacity="1" stop-color="rgb(23.831177%, 53.790283%, 55.290222%)" offset="0.5625"/><stop stop-opacity="1" stop-color="rgb(23.739624%, 53.570557%, 55.070496%)" offset="0.578125"/><stop stop-opacity="1" stop-color="rgb(23.646545%, 53.349304%, 54.849243%)" offset="0.59375"/><stop stop-opacity="1" stop-color="rgb(23.554993%, 53.129578%, 54.629517%)" offset="0.609375"/><stop stop-opacity="1" stop-color="rgb(23.46344%, 52.909851%, 54.40979%)" offset="0.625"/><stop stop-opacity="1" stop-color="rgb(23.370361%, 52.690125%, 54.190063%)" offset="0.640625"/><stop stop-opacity="1" stop-color="rgb(23.278809%, 52.470398%, 53.970337%)" offset="0.65625"/><stop stop-opacity="1" stop-color="rgb(23.187256%, 52.250671%, 53.75061%)" offset="0.671875"/><stop stop-opacity="1" stop-color="rgb(23.095703%, 52.029419%, 53.530884%)" offset="0.6875"/><stop stop-opacity="1" stop-color="rgb(23.002625%, 51.809692%, 53.309631%)" offset="0.703125"/><stop stop-opacity="1" stop-color="rgb(22.911072%, 51.589966%, 53.089905%)" offset="0.71875"/><stop stop-opacity="1" stop-color="rgb(22.819519%, 51.370239%, 52.870178%)" offset="0.734375"/><stop stop-opacity="1" stop-color="rgb(22.72644%, 51.150513%, 52.650452%)" offset="0.75"/><stop stop-opacity="1" stop-color="rgb(22.634888%, 50.930786%, 52.430725%)" offset="0.765625"/><stop stop-opacity="1" stop-color="rgb(22.543335%, 50.71106%, 52.210999%)" offset="0.78125"/><stop stop-opacity="1" stop-color="rgb(22.450256%, 50.489807%, 51.989746%)" offset="0.796875"/><stop stop-opacity="1" stop-color="rgb(22.358704%, 50.270081%, 51.77002%)" offset="0.8125"/><stop stop-opacity="1" stop-color="rgb(22.267151%, 50.050354%, 51.550293%)" offset="0.828125"/><stop stop-opacity="1" stop-color="rgb(22.174072%, 49.830627%, 51.330566%)" offset="0.84375"/><stop stop-opacity="1" stop-color="rgb(22.08252%, 49.610901%, 51.11084%)" offset="0.859375"/><stop stop-opacity="1" stop-color="rgb(21.990967%, 49.391174%, 50.891113%)" offset="0.875"/><stop stop-opacity="1" stop-color="rgb(21.897888%, 49.169922%, 50.669861%)" offset="0.890625"/><stop stop-opacity="1" stop-color="rgb(21.806335%, 48.950195%, 50.450134%)" offset="0.90625"/><stop stop-opacity="1" stop-color="rgb(21.714783%, 48.730469%, 50.230408%)" offset="0.921875"/><stop stop-opacity="1" stop-color="rgb(21.621704%, 48.510742%, 50.010681%)" offset="0.9375"/><stop stop-opacity="1" stop-color="rgb(21.530151%, 48.291016%, 49.790955%)" offset="0.953125"/><stop stop-opacity="1" stop-color="rgb(21.438599%, 48.071289%, 49.571228%)" offset="0.96875"/><stop stop-opacity="1" stop-color="rgb(21.34552%, 47.850037%, 49.349976%)" offset="0.984375"/><stop stop-opacity="1" stop-color="rgb(21.253967%, 47.63031%, 49.130249%)" offset="1"/></linearGradient><clipPath id="8e46f54d51"><path d="M 15.355469 88 L 112 88 L 112 164 L 15.355469 164 Z M 15.355469 88 " clip-rule="nonzero"/></clipPath><clipPath id="6bd0568686"><path d="M 147.429688 67 L 368.554688 67 L 368.554688 164 L 147.429688 164 Z M 147.429688 67 " clip-rule="nonzero"/></clipPath><clipPath id="0d6435e0c4"><path d="M 155.410156 275 L 228.65625 275 L 228.65625 347.886719 L 155.410156 347.886719 Z M 155.410156 275 " clip-rule="nonzero"/></clipPath><clipPath id="0775ab3578"><path d="M 80 36.109375 L 304 36.109375 L 304 314 L 80 314 Z M 80 36.109375 " clip-rule="nonzero"/></clipPath></defs><g clip-path="url(#8b28b3e90b)"><g clip-path="url(#41ed65ef10)"><path fill="url(#1db5bd006c)" d="M 0 0 L 0 381.914062 L 383.40625 381.914062 L 383.40625 0 Z M 0 0 " fill-rule="nonzero"/></g></g><g clip-path="url(#8e46f54d51)"><path fill="#ffffff" d="M 90.910156 88.648438 L 111.820312 115.960938 C 110.445312 116.507812 109.074219 117.074219 107.707031 117.652344 C 81.917969 128.554688 58.792969 144.128906 38.976562 163.949219 L 15.4375 140.40625 C 37.320312 118.527344 62.695312 101.128906 90.910156 88.648438 " fill-opacity="1" fill-rule="nonzero"/></g><g clip-path="url(#6bd0568686)"><path fill="#ffffff" d="M 368.554688 140.410156 L 345.011719 163.945312 C 325.207031 144.132812 302.082031 128.558594 276.289062 117.652344 C 249.492188 106.316406 221.136719 100.566406 192 100.566406 C 184.945312 100.566406 177.9375 100.90625 170.988281 101.578125 L 147.730469 71.203125 C 162.257812 68.59375 177.035156 67.28125 192 67.28125 C 225.613281 67.28125 258.339844 73.914062 289.257812 86.992188 C 319.015625 99.578125 345.699219 117.550781 368.554688 140.410156 " fill-opacity="1" fill-rule="nonzero"/></g><path fill="#ffffff" d="M 134.800781 145.960938 L 156.484375 174.28125 C 149.09375 176.121094 141.832031 178.546875 134.730469 181.546875 C 117.207031 188.960938 101.5 199.546875 88.035156 213.007812 L 64.5 189.472656 C 81.003906 172.960938 100.269531 159.984375 121.761719 150.890625 C 126.0625 149.078125 130.410156 147.425781 134.800781 145.960938 " fill-opacity="1" fill-rule="nonzero"/><path fill="#ffffff" d="M 319.496094 189.472656 L 295.957031 213.007812 C 282.496094 199.546875 266.785156 188.960938 249.261719 181.546875 C 241.832031 178.402344 234.214844 175.890625 226.464844 174.023438 L 197.921875 136.757812 C 220.117188 137.472656 241.71875 142.21875 262.230469 150.890625 C 283.722656 159.984375 302.992188 172.960938 319.496094 189.472656 " fill-opacity="1" fill-rule="nonzero"/><path fill="#ffffff" d="M 181.207031 206.558594 L 207.484375 240.875 C 202.414062 239.847656 197.238281 239.328125 192 239.328125 C 181.539062 239.328125 171.363281 241.386719 161.753906 245.449219 C 152.507812 249.363281 144.210938 254.953125 137.101562 262.066406 L 113.554688 238.535156 C 123.714844 228.367188 135.570312 220.382812 148.789062 214.789062 C 159.191406 210.394531 170.054688 207.640625 181.207031 206.558594 " fill-opacity="1" fill-rule="nonzero"/><g clip-path="url(#0d6435e0c4)"><path fill="#ffffff" d="M 228.230469 311.652344 C 228.230469 321.640625 224.164062 330.703125 217.601562 337.261719 C 211.042969 343.820312 201.984375 347.886719 191.996094 347.886719 C 182.003906 347.886719 172.949219 343.820312 166.386719 337.261719 C 159.824219 330.703125 155.761719 321.640625 155.761719 311.652344 C 155.761719 301.664062 159.824219 292.605469 166.386719 286.046875 C 172.949219 279.484375 182.003906 275.417969 191.996094 275.417969 C 201.984375 275.417969 211.042969 279.484375 217.601562 286.046875 C 224.164062 292.605469 228.230469 301.664062 228.230469 311.652344 " fill-opacity="1" fill-rule="nonzero"/></g><g clip-path="url(#0775ab3578)"><path fill="#ffffff" d="M 303.699219 293.316406 L 277.269531 313.558594 L 226.675781 247.488281 L 226.671875 247.488281 L 194.960938 206.078125 L 168.699219 171.789062 L 146.292969 142.53125 L 122.839844 111.898438 L 101.625 84.203125 L 80.296875 56.347656 L 106.726562 36.105469 L 135.527344 73.71875 L 158.113281 103.214844 L 183.867188 136.839844 L 210.066406 171.046875 L 248.859375 221.710938 L 265.515625 243.457031 L 303.699219 293.316406 " fill-opacity="1" fill-rule="nonzero"/></g></svg>