<svg xmlns="http://www.w3.org/2000/svg" xmlns:xlink="http://www.w3.org/1999/xlink" width="1284" zoomAndPan="magnify" viewBox="0 0 962.88 2083.499965" height="2778" preserveAspectRatio="xMidYMid meet" version="1.0"><defs><g/><clipPath id="4ee4026c0b"><path d="M 0.0546875 0 L 962.703125 0 L 962.703125 2083 L 0.0546875 2083 Z M 0.0546875 0 " clip-rule="nonzero"/></clipPath><linearGradient x1="0" gradientTransform="matrix(0.74982, 0, 0, 0.74982, 0.0555311, 0)" y1="1389" x2="1283.84" gradientUnits="userSpaceOnUse" y2="1389" id="dee17897a6"><stop stop-opacity="1" stop-color="rgb(27.099609%, 61.599731%, 63.09967%)" offset="0"/><stop stop-opacity="1" stop-color="rgb(27.052307%, 61.488342%, 62.988281%)" offset="0.015625"/><stop stop-opacity="1" stop-color="rgb(26.960754%, 61.268616%, 62.768555%)" offset="0.03125"/><stop stop-opacity="1" stop-color="rgb(26.869202%, 61.048889%, 62.548828%)" offset="0.046875"/><stop stop-opacity="1" stop-color="rgb(26.776123%, 60.827637%, 62.327576%)" offset="0.0625"/><stop stop-opacity="1" stop-color="rgb(26.68457%, 60.60791%, 62.107849%)" offset="0.078125"/><stop stop-opacity="1" stop-color="rgb(26.591492%, 60.386658%, 61.888123%)" offset="0.09375"/><stop stop-opacity="1" stop-color="rgb(26.499939%, 60.166931%, 61.66687%)" offset="0.109375"/><stop stop-opacity="1" stop-color="rgb(26.40686%, 59.947205%, 61.447144%)" offset="0.125"/><stop stop-opacity="1" stop-color="rgb(26.315308%, 59.725952%, 61.225891%)" offset="0.140625"/><stop stop-opacity="1" stop-color="rgb(26.223755%, 59.506226%, 61.006165%)" offset="0.15625"/><stop stop-opacity="1" stop-color="rgb(26.130676%, 59.286499%, 60.786438%)" offset="0.171875"/><stop stop-opacity="1" stop-color="rgb(26.039124%, 59.065247%, 60.565186%)" offset="0.1875"/><stop stop-opacity="1" stop-color="rgb(25.946045%, 58.84552%, 60.345459%)" offset="0.203125"/><stop stop-opacity="1" stop-color="rgb(25.854492%, 58.625793%, 60.125732%)" offset="0.21875"/><stop stop-opacity="1" stop-color="rgb(25.762939%, 58.404541%, 59.90448%)" offset="0.234375"/><stop stop-opacity="1" stop-color="rgb(25.669861%, 58.184814%, 59.684753%)" offset="0.25"/><stop stop-opacity="1" stop-color="rgb(25.578308%, 57.963562%, 59.463501%)" offset="0.265625"/><stop stop-opacity="1" stop-color="rgb(25.485229%, 57.743835%, 59.243774%)" offset="0.28125"/><stop stop-opacity="1" stop-color="rgb(25.393677%, 57.524109%, 59.024048%)" offset="0.296875"/><stop stop-opacity="1" stop-color="rgb(25.302124%, 57.302856%, 58.802795%)" offset="0.3125"/><stop stop-opacity="1" stop-color="rgb(25.209045%, 57.08313%, 58.583069%)" offset="0.328125"/><stop stop-opacity="1" stop-color="rgb(25.117493%, 56.863403%, 58.363342%)" offset="0.34375"/><stop stop-opacity="1" stop-color="rgb(25.024414%, 56.642151%, 58.14209%)" offset="0.359375"/><stop stop-opacity="1" stop-color="rgb(24.932861%, 56.422424%, 57.922363%)" offset="0.375"/><stop stop-opacity="1" stop-color="rgb(24.841309%, 56.202698%, 57.702637%)" offset="0.390625"/><stop stop-opacity="1" stop-color="rgb(24.74823%, 55.981445%, 57.481384%)" offset="0.40625"/><stop stop-opacity="1" stop-color="rgb(24.656677%, 55.761719%, 57.261658%)" offset="0.421875"/><stop stop-opacity="1" stop-color="rgb(24.563599%, 55.540466%, 57.040405%)" offset="0.4375"/><stop stop-opacity="1" stop-color="rgb(24.472046%, 55.32074%, 56.820679%)" offset="0.453125"/><stop stop-opacity="1" stop-color="rgb(24.380493%, 55.101013%, 56.600952%)" offset="0.46875"/><stop stop-opacity="1" stop-color="rgb(24.287415%, 54.879761%, 56.3797%)" offset="0.484375"/><stop stop-opacity="1" stop-color="rgb(24.195862%, 54.660034%, 56.159973%)" offset="0.5"/><stop stop-opacity="1" stop-color="rgb(24.102783%, 54.440308%, 55.940247%)" offset="0.515625"/><stop stop-opacity="1" stop-color="rgb(24.01123%, 54.219055%, 55.718994%)" offset="0.53125"/><stop stop-opacity="1" stop-color="rgb(23.918152%, 53.999329%, 55.499268%)" offset="0.546875"/><stop stop-opacity="1" stop-color="rgb(23.826599%, 53.778076%, 55.279541%)" offset="0.5625"/><stop stop-opacity="1" stop-color="rgb(23.735046%, 53.55835%, 55.058289%)" offset="0.578125"/><stop stop-opacity="1" stop-color="rgb(23.641968%, 53.338623%, 54.838562%)" offset="0.59375"/><stop stop-opacity="1" stop-color="rgb(23.550415%, 53.117371%, 54.61731%)" offset="0.609375"/><stop stop-opacity="1" stop-color="rgb(23.457336%, 52.897644%, 54.397583%)" offset="0.625"/><stop stop-opacity="1" stop-color="rgb(23.365784%, 52.677917%, 54.177856%)" offset="0.640625"/><stop stop-opacity="1" stop-color="rgb(23.274231%, 52.456665%, 53.956604%)" offset="0.65625"/><stop stop-opacity="1" stop-color="rgb(23.181152%, 52.236938%, 53.736877%)" offset="0.671875"/><stop stop-opacity="1" stop-color="rgb(23.0896%, 52.017212%, 53.517151%)" offset="0.6875"/><stop stop-opacity="1" stop-color="rgb(22.996521%, 51.795959%, 53.295898%)" offset="0.703125"/><stop stop-opacity="1" stop-color="rgb(22.904968%, 51.576233%, 53.076172%)" offset="0.71875"/><stop stop-opacity="1" stop-color="rgb(22.813416%, 51.35498%, 52.856445%)" offset="0.734375"/><stop stop-opacity="1" stop-color="rgb(22.720337%, 51.135254%, 52.635193%)" offset="0.75"/><stop stop-opacity="1" stop-color="rgb(22.628784%, 50.915527%, 52.415466%)" offset="0.765625"/><stop stop-opacity="1" stop-color="rgb(22.535706%, 50.694275%, 52.194214%)" offset="0.78125"/><stop stop-opacity="1" stop-color="rgb(22.444153%, 50.474548%, 51.974487%)" offset="0.796875"/><stop stop-opacity="1" stop-color="rgb(22.3526%, 50.254822%, 51.754761%)" offset="0.8125"/><stop stop-opacity="1" stop-color="rgb(22.259521%, 50.033569%, 51.533508%)" offset="0.828125"/><stop stop-opacity="1" stop-color="rgb(22.167969%, 49.813843%, 51.313782%)" offset="0.84375"/><stop stop-opacity="1" stop-color="rgb(22.07489%, 49.594116%, 51.094055%)" offset="0.859375"/><stop stop-opacity="1" stop-color="rgb(21.983337%, 49.372864%, 50.872803%)" offset="0.875"/><stop stop-opacity="1" stop-color="rgb(21.890259%, 49.153137%, 50.653076%)" offset="0.890625"/><stop stop-opacity="1" stop-color="rgb(21.798706%, 48.931885%, 50.431824%)" offset="0.90625"/><stop stop-opacity="1" stop-color="rgb(21.707153%, 48.712158%, 50.212097%)" offset="0.921875"/><stop stop-opacity="1" stop-color="rgb(21.614075%, 48.492432%, 49.992371%)" offset="0.9375"/><stop stop-opacity="1" stop-color="rgb(21.522522%, 48.271179%, 49.771118%)" offset="0.953125"/><stop stop-opacity="1" stop-color="rgb(21.429443%, 48.051453%, 49.551392%)" offset="0.96875"/><stop stop-opacity="1" stop-color="rgb(21.337891%, 47.831726%, 49.331665%)" offset="0.984375"/><stop stop-opacity="1" stop-color="rgb(21.246338%, 47.610474%, 49.110413%)" offset="1"/></linearGradient><clipPath id="65cc496203"><path d="M 425.570312 317 L 702.769531 317 L 702.769531 439 L 425.570312 439 Z M 425.570312 317 " clip-rule="nonzero"/></clipPath><clipPath id="cd0215f3d0"><path d="M 436 578 L 527 578 L 527 669.363281 L 436 669.363281 Z M 436 578 " clip-rule="nonzero"/></clipPath><clipPath id="190f6b8cad"><path d="M 341 278.707031 L 622 278.707031 L 622 627 L 341 627 Z M 341 278.707031 " clip-rule="nonzero"/></clipPath></defs><g clip-path="url(#4ee4026c0b)"><path fill="#ffffff" d="M 0.0546875 0 L 962.824219 0 L 962.824219 2083 L 0.0546875 2083 Z M 0.0546875 0 " fill-opacity="1" fill-rule="nonzero"/><path fill="url(#dee17897a6)" d="M 0.0546875 0 L 0.0546875 2083 L 962.703125 2083 L 962.703125 0 Z M 0.0546875 0 " fill-rule="nonzero"/></g><path fill="#ffffff" d="M 354.714844 344.574219 L 380.929688 378.808594 C 379.203125 379.496094 377.484375 380.203125 375.769531 380.925781 C 343.441406 394.597656 314.457031 414.121094 289.609375 438.96875 L 260.105469 409.453125 C 287.539062 382.027344 319.347656 360.214844 354.714844 344.574219 " fill-opacity="1" fill-rule="nonzero"/><g clip-path="url(#65cc496203)"><path fill="#ffffff" d="M 702.769531 409.460938 L 673.257812 438.964844 C 648.429688 414.125 619.441406 394.601562 587.109375 380.925781 C 553.515625 366.71875 517.96875 359.511719 481.441406 359.511719 C 472.597656 359.511719 463.816406 359.933594 455.101562 360.777344 L 425.945312 322.703125 C 444.15625 319.429688 462.683594 317.785156 481.441406 317.785156 C 523.578125 317.785156 564.605469 326.097656 603.363281 342.496094 C 640.671875 358.273438 674.117188 380.804688 702.769531 409.460938 " fill-opacity="1" fill-rule="nonzero"/></g><path fill="#ffffff" d="M 409.734375 416.417969 L 436.921875 451.917969 C 427.65625 454.222656 418.550781 457.269531 409.652344 461.027344 C 387.683594 470.324219 367.988281 483.59375 351.113281 500.464844 L 321.609375 470.960938 C 342.300781 450.265625 366.453125 433.996094 393.394531 422.597656 C 398.785156 420.324219 404.230469 418.257812 409.734375 416.417969 " fill-opacity="1" fill-rule="nonzero"/><path fill="#ffffff" d="M 641.269531 470.960938 L 611.761719 500.464844 C 594.886719 483.59375 575.195312 470.324219 553.226562 461.027344 C 543.910156 457.085938 534.363281 453.9375 524.648438 451.597656 L 488.867188 404.878906 C 516.6875 405.777344 543.773438 411.726562 569.484375 422.597656 C 596.425781 433.996094 620.582031 450.265625 641.269531 470.960938 " fill-opacity="1" fill-rule="nonzero"/><path fill="#ffffff" d="M 467.910156 492.382812 L 500.855469 535.402344 C 494.5 534.113281 488.011719 533.460938 481.441406 533.460938 C 468.332031 533.460938 455.574219 536.042969 443.527344 541.136719 C 431.9375 546.042969 421.535156 553.046875 412.621094 561.96875 L 383.105469 532.46875 C 395.839844 519.722656 410.703125 509.714844 427.273438 502.699219 C 440.3125 497.1875 453.933594 493.738281 467.910156 492.382812 " fill-opacity="1" fill-rule="nonzero"/><g clip-path="url(#cd0215f3d0)"><path fill="#ffffff" d="M 526.859375 624.128906 C 526.859375 636.652344 521.765625 648.007812 513.539062 656.234375 C 505.3125 664.453125 493.960938 669.550781 481.4375 669.550781 C 468.914062 669.550781 457.558594 664.453125 449.332031 656.234375 C 441.109375 648.007812 436.011719 636.652344 436.011719 624.128906 C 436.011719 611.605469 441.109375 600.25 449.332031 592.027344 C 457.558594 583.804688 468.914062 578.707031 481.4375 578.707031 C 493.960938 578.707031 505.3125 583.804688 513.539062 592.027344 C 521.765625 600.25 526.859375 611.605469 526.859375 624.128906 " fill-opacity="1" fill-rule="nonzero"/></g><g clip-path="url(#190f6b8cad)"><path fill="#ffffff" d="M 621.46875 601.144531 L 588.335938 626.519531 L 524.910156 543.695312 L 524.90625 543.691406 L 485.152344 491.78125 L 452.234375 448.792969 L 424.144531 412.117188 L 394.742188 373.71875 L 368.148438 338.996094 L 341.410156 304.074219 L 374.546875 278.703125 L 410.648438 325.851562 L 438.964844 362.828125 L 471.25 404.984375 L 504.089844 447.867188 L 552.722656 511.375 L 573.601562 538.636719 L 621.46875 601.144531 " fill-opacity="1" fill-rule="nonzero"/></g><g fill="#ffffff" fill-opacity="1"><g transform="translate(224.023254, 913.16023)"><g><path d="M 5.5625 0 L 5.5625 -42.828125 L 23.84375 -42.828125 C 26.476562 -42.828125 28.707031 -42.410156 30.53125 -41.578125 C 32.351562 -40.742188 33.734375 -39.5625 34.671875 -38.03125 C 35.609375 -36.5 36.078125 -34.6875 36.078125 -32.59375 C 36.078125 -30.707031 35.617188 -29.039062 34.703125 -27.59375 C 33.785156 -26.144531 32.46875 -24.984375 30.75 -24.109375 L 30.75 -23.484375 C 33.445312 -22.785156 35.523438 -21.507812 36.984375 -19.65625 C 38.453125 -17.800781 39.1875 -15.523438 39.1875 -12.828125 C 39.1875 -8.722656 37.953125 -5.554688 35.484375 -3.328125 C 33.015625 -1.109375 29.347656 0 24.484375 0 Z M 22.078125 -25.75 C 26.023438 -25.75 28 -27.523438 28 -31.078125 C 28 -32.890625 27.507812 -34.238281 26.53125 -35.125 C 25.5625 -36.019531 24.078125 -36.46875 22.078125 -36.46875 L 14.03125 -36.46875 L 14.03125 -25.75 Z M 23.640625 -6.703125 C 28.304688 -6.703125 30.640625 -8.820312 30.640625 -13.0625 C 30.640625 -17.320312 28.304688 -19.453125 23.640625 -19.453125 L 14.03125 -19.453125 L 14.03125 -6.703125 Z M 23.640625 -6.703125 "/></g></g><g transform="translate(265.907732, 913.16023)"><g><path d="M 12.59375 0.609375 C 10.519531 0.609375 8.722656 0.226562 7.203125 -0.53125 C 5.679688 -1.289062 4.507812 -2.40625 3.6875 -3.875 C 2.863281 -5.351562 2.453125 -7.128906 2.453125 -9.203125 C 2.453125 -11.109375 2.863281 -12.710938 3.6875 -14.015625 C 4.507812 -15.316406 5.78125 -16.378906 7.5 -17.203125 C 9.21875 -18.035156 11.460938 -18.675781 14.234375 -19.125 C 16.171875 -19.4375 17.640625 -19.773438 18.640625 -20.140625 C 19.648438 -20.515625 20.328125 -20.9375 20.671875 -21.40625 C 21.023438 -21.875 21.203125 -22.472656 21.203125 -23.203125 C 21.203125 -24.234375 20.835938 -25.019531 20.109375 -25.5625 C 19.390625 -26.113281 18.191406 -26.390625 16.515625 -26.390625 C 14.722656 -26.390625 13.015625 -25.988281 11.390625 -25.1875 C 9.773438 -24.382812 8.367188 -23.332031 7.171875 -22.03125 L 6.59375 -22.03125 L 3.1875 -27.15625 C 4.832031 -28.96875 6.832031 -30.378906 9.1875 -31.390625 C 11.550781 -32.410156 14.128906 -32.921875 16.921875 -32.921875 C 21.203125 -32.921875 24.296875 -32.007812 26.203125 -30.1875 C 28.117188 -28.375 29.078125 -25.800781 29.078125 -22.46875 L 29.078125 -8.4375 C 29.078125 -6.988281 29.710938 -6.265625 30.984375 -6.265625 C 31.472656 -6.265625 31.953125 -6.351562 32.421875 -6.53125 L 32.828125 -6.421875 L 33.421875 -0.765625 C 32.972656 -0.472656 32.347656 -0.234375 31.546875 -0.046875 C 30.742188 0.140625 29.863281 0.234375 28.90625 0.234375 C 26.976562 0.234375 25.46875 -0.132812 24.375 -0.875 C 23.289062 -1.613281 22.519531 -2.773438 22.0625 -4.359375 L 21.4375 -4.421875 C 19.851562 -1.066406 16.90625 0.609375 12.59375 0.609375 Z M 15.171875 -5.453125 C 17.046875 -5.453125 18.546875 -6.078125 19.671875 -7.328125 C 20.796875 -8.585938 21.359375 -10.34375 21.359375 -12.59375 L 21.359375 -15.875 L 20.796875 -15.984375 C 20.304688 -15.597656 19.664062 -15.269531 18.875 -15 C 18.082031 -14.738281 16.945312 -14.484375 15.46875 -14.234375 C 13.707031 -13.941406 12.441406 -13.4375 11.671875 -12.71875 C 10.898438 -12.007812 10.515625 -11 10.515625 -9.6875 C 10.515625 -8.300781 10.921875 -7.25 11.734375 -6.53125 C 12.554688 -5.8125 13.703125 -5.453125 15.171875 -5.453125 Z M 15.171875 -5.453125 "/></g></g><g transform="translate(299.97182, 913.16023)"><g><path d="M 18.828125 0.609375 C 15.703125 0.609375 12.9375 -0.0351562 10.53125 -1.328125 C 8.132812 -2.628906 6.265625 -4.539062 4.921875 -7.0625 C 3.578125 -9.582031 2.90625 -12.609375 2.90625 -16.140625 C 2.90625 -19.691406 3.578125 -22.726562 4.921875 -25.25 C 6.265625 -27.769531 8.128906 -29.675781 10.515625 -30.96875 C 12.898438 -32.269531 15.625 -32.921875 18.6875 -32.921875 C 25.5 -32.921875 29.863281 -30.453125 31.78125 -25.515625 L 26.21875 -21.53125 L 25.59375 -21.53125 C 24.9375 -23.050781 24.070312 -24.179688 23 -24.921875 C 21.9375 -25.660156 20.5 -26.03125 18.6875 -26.03125 C 16.34375 -26.03125 14.515625 -25.21875 13.203125 -23.59375 C 11.898438 -21.976562 11.25 -19.492188 11.25 -16.140625 C 11.25 -12.816406 11.910156 -10.335938 13.234375 -8.703125 C 14.566406 -7.078125 16.429688 -6.265625 18.828125 -6.265625 C 20.585938 -6.265625 22.078125 -6.738281 23.296875 -7.6875 C 24.515625 -8.632812 25.390625 -10 25.921875 -11.78125 L 26.53125 -11.828125 L 32.3125 -8.671875 C 31.488281 -5.929688 29.96875 -3.695312 27.75 -1.96875 C 25.53125 -0.25 22.554688 0.609375 18.828125 0.609375 Z M 18.828125 0.609375 "/></g></g><g transform="translate(333.274373, 913.16023)"><g><path d="M 4.65625 0 L 4.65625 -45.28125 L 12.765625 -45.28125 L 12.765625 -20.15625 L 13.5625 -20.15625 L 22.90625 -32.3125 L 31.140625 -32.3125 L 31.140625 -31.625 L 20.15625 -17.453125 L 32.359375 -0.734375 L 32.359375 0 L 23.8125 0 L 13.5625 -13.625 L 12.765625 -13.625 L 12.765625 0 Z M 4.65625 0 "/></g></g><g transform="translate(365.698231, 913.16023)"><g/></g><g transform="translate(379.845225, 913.16023)"><g><path d="M 8.703125 -36.171875 C 7.234375 -36.171875 6.039062 -36.613281 5.125 -37.5 C 4.207031 -38.394531 3.75 -39.546875 3.75 -40.953125 C 3.75 -42.335938 4.207031 -43.472656 5.125 -44.359375 C 6.039062 -45.242188 7.234375 -45.6875 8.703125 -45.6875 C 9.671875 -45.6875 10.535156 -45.484375 11.296875 -45.078125 C 12.066406 -44.671875 12.660156 -44.109375 13.078125 -43.390625 C 13.492188 -42.679688 13.703125 -41.867188 13.703125 -40.953125 C 13.703125 -40.023438 13.492188 -39.203125 13.078125 -38.484375 C 12.660156 -37.765625 12.066406 -37.195312 11.296875 -36.78125 C 10.535156 -36.375 9.671875 -36.171875 8.703125 -36.171875 Z M 4.65625 0 L 4.65625 -32.3125 L 12.765625 -32.3125 L 12.765625 0 Z M 4.65625 0 "/></g></g><g transform="translate(397.243392, 913.16023)"><g><path d="M 4.65625 0 L 4.65625 -32.3125 L 12.453125 -32.3125 L 12.453125 -27.5625 L 13.0625 -27.421875 C 15.070312 -31.085938 18.332031 -32.921875 22.84375 -32.921875 C 26.570312 -32.921875 29.3125 -31.90625 31.0625 -29.875 C 32.8125 -27.84375 33.6875 -24.882812 33.6875 -21 L 33.6875 0 L 25.5625 0 L 25.5625 -20 C 25.5625 -22.144531 25.128906 -23.691406 24.265625 -24.640625 C 23.410156 -25.585938 22.039062 -26.0625 20.15625 -26.0625 C 17.832031 -26.0625 16.019531 -25.3125 14.71875 -23.8125 C 13.414062 -22.3125 12.765625 -19.945312 12.765625 -16.71875 L 12.765625 0 Z M 4.65625 0 "/></g></g><g transform="translate(435.085872, 913.16023)"><g/></g><g transform="translate(449.232866, 913.16023)"><g><path d="M 22.296875 -7.703125 L 24.390625 -1.703125 C 23.515625 -0.972656 22.410156 -0.40625 21.078125 0 C 19.753906 0.40625 18.253906 0.609375 16.578125 0.609375 C 13.078125 0.609375 10.421875 -0.335938 8.609375 -2.234375 C 6.796875 -4.140625 5.890625 -6.910156 5.890625 -10.546875 L 5.890625 -25.890625 L 0.96875 -25.890625 L 0.96875 -32.328125 L 5.890625 -32.328125 L 5.890625 -38.625 L 14 -39.953125 L 14 -32.328125 L 23.171875 -32.328125 L 23.171875 -25.890625 L 14 -25.890625 L 14 -11.125 C 14 -9.53125 14.328125 -8.363281 14.984375 -7.625 C 15.648438 -6.894531 16.617188 -6.53125 17.890625 -6.53125 C 19.335938 -6.53125 20.597656 -6.921875 21.671875 -7.703125 Z M 22.296875 -7.703125 "/></g></g><g transform="translate(474.334263, 913.16023)"><g><path d="M 4.65625 0 L 4.65625 -45.28125 L 12.765625 -45.28125 L 12.765625 -28.09375 L 13.390625 -27.96875 C 14.460938 -29.550781 15.78125 -30.769531 17.34375 -31.625 C 18.90625 -32.488281 20.785156 -32.921875 22.984375 -32.921875 C 30.117188 -32.921875 33.6875 -28.878906 33.6875 -20.796875 L 33.6875 0 L 25.5625 0 L 25.5625 -19.765625 C 25.5625 -21.972656 25.125 -23.570312 24.25 -24.5625 C 23.375 -25.5625 22.007812 -26.0625 20.15625 -26.0625 C 17.882812 -26.0625 16.082031 -25.304688 14.75 -23.796875 C 13.425781 -22.285156 12.765625 -19.925781 12.765625 -16.71875 L 12.765625 0 Z M 4.65625 0 "/></g></g><g transform="translate(512.176742, 913.16023)"><g><path d="M 31.921875 -14.328125 L 11.15625 -14.328125 C 11.394531 -11.515625 12.195312 -9.46875 13.5625 -8.1875 C 14.925781 -6.90625 16.789062 -6.265625 19.15625 -6.265625 C 21.007812 -6.265625 22.507812 -6.609375 23.65625 -7.296875 C 24.8125 -7.992188 25.742188 -9.046875 26.453125 -10.453125 L 27.0625 -10.453125 L 32.453125 -7 C 31.398438 -4.738281 29.804688 -2.90625 27.671875 -1.5 C 25.546875 -0.09375 22.707031 0.609375 19.15625 0.609375 C 15.8125 0.609375 12.925781 -0.0195312 10.5 -1.28125 C 8.070312 -2.550781 6.195312 -4.441406 4.875 -6.953125 C 3.5625 -9.460938 2.90625 -12.523438 2.90625 -16.140625 C 2.90625 -19.804688 3.597656 -22.898438 4.984375 -25.421875 C 6.367188 -27.941406 8.238281 -29.820312 10.59375 -31.0625 C 12.957031 -32.300781 15.613281 -32.921875 18.5625 -32.921875 C 23.132812 -32.921875 26.632812 -31.707031 29.0625 -29.28125 C 31.5 -26.863281 32.71875 -23.3125 32.71875 -18.625 C 32.71875 -16.925781 32.660156 -15.609375 32.546875 -14.671875 Z M 24.953125 -19.5625 C 24.878906 -22.019531 24.304688 -23.8125 23.234375 -24.9375 C 22.171875 -26.0625 20.613281 -26.625 18.5625 -26.625 C 14.46875 -26.625 12.054688 -24.269531 11.328125 -19.5625 Z M 24.953125 -19.5625 "/></g></g><g transform="translate(547.295265, 913.16023)"><g/></g><g transform="translate(561.44226, 913.16023)"><g><path d="M 20.96875 -42.828125 C 27.914062 -42.828125 33.21875 -41.03125 36.875 -37.4375 C 40.539062 -33.84375 42.375 -28.5 42.375 -21.40625 C 42.375 -14.34375 40.539062 -9.007812 36.875 -5.40625 C 33.21875 -1.800781 27.914062 0 20.96875 0 L 5.5625 0 L 5.5625 -42.828125 Z M 20.46875 -7.125 C 24.882812 -7.125 28.1875 -8.25 30.375 -10.5 C 32.5625 -12.757812 33.65625 -16.394531 33.65625 -21.40625 C 33.65625 -26.425781 32.5625 -30.0625 30.375 -32.3125 C 28.1875 -34.570312 24.882812 -35.703125 20.46875 -35.703125 L 14.03125 -35.703125 L 14.03125 -7.125 Z M 20.46875 -7.125 "/></g></g><g transform="translate(607.222286, 913.16023)"><g><path d="M 12.59375 0.609375 C 10.519531 0.609375 8.722656 0.226562 7.203125 -0.53125 C 5.679688 -1.289062 4.507812 -2.40625 3.6875 -3.875 C 2.863281 -5.351562 2.453125 -7.128906 2.453125 -9.203125 C 2.453125 -11.109375 2.863281 -12.710938 3.6875 -14.015625 C 4.507812 -15.316406 5.78125 -16.378906 7.5 -17.203125 C 9.21875 -18.035156 11.460938 -18.675781 14.234375 -19.125 C 16.171875 -19.4375 17.640625 -19.773438 18.640625 -20.140625 C 19.648438 -20.515625 20.328125 -20.9375 20.671875 -21.40625 C 21.023438 -21.875 21.203125 -22.472656 21.203125 -23.203125 C 21.203125 -24.234375 20.835938 -25.019531 20.109375 -25.5625 C 19.390625 -26.113281 18.191406 -26.390625 16.515625 -26.390625 C 14.722656 -26.390625 13.015625 -25.988281 11.390625 -25.1875 C 9.773438 -24.382812 8.367188 -23.332031 7.171875 -22.03125 L 6.59375 -22.03125 L 3.1875 -27.15625 C 4.832031 -28.96875 6.832031 -30.378906 9.1875 -31.390625 C 11.550781 -32.410156 14.128906 -32.921875 16.921875 -32.921875 C 21.203125 -32.921875 24.296875 -32.007812 26.203125 -30.1875 C 28.117188 -28.375 29.078125 -25.800781 29.078125 -22.46875 L 29.078125 -8.4375 C 29.078125 -6.988281 29.710938 -6.265625 30.984375 -6.265625 C 31.472656 -6.265625 31.953125 -6.351562 32.421875 -6.53125 L 32.828125 -6.421875 L 33.421875 -0.765625 C 32.972656 -0.472656 32.347656 -0.234375 31.546875 -0.046875 C 30.742188 0.140625 29.863281 0.234375 28.90625 0.234375 C 26.976562 0.234375 25.46875 -0.132812 24.375 -0.875 C 23.289062 -1.613281 22.519531 -2.773438 22.0625 -4.359375 L 21.4375 -4.421875 C 19.851562 -1.066406 16.90625 0.609375 12.59375 0.609375 Z M 15.171875 -5.453125 C 17.046875 -5.453125 18.546875 -6.078125 19.671875 -7.328125 C 20.796875 -8.585938 21.359375 -10.34375 21.359375 -12.59375 L 21.359375 -15.875 L 20.796875 -15.984375 C 20.304688 -15.597656 19.664062 -15.269531 18.875 -15 C 18.082031 -14.738281 16.945312 -14.484375 15.46875 -14.234375 C 13.707031 -13.941406 12.441406 -13.4375 11.671875 -12.71875 C 10.898438 -12.007812 10.515625 -11 10.515625 -9.6875 C 10.515625 -8.300781 10.921875 -7.25 11.734375 -6.53125 C 12.554688 -5.8125 13.703125 -5.453125 15.171875 -5.453125 Z M 15.171875 -5.453125 "/></g></g><g transform="translate(641.286375, 913.16023)"><g><path d="M 7.140625 13.703125 C 5.753906 13.703125 4.5 13.59375 3.375 13.375 C 2.257812 13.164062 1.347656 12.882812 0.640625 12.53125 L 1.9375 5.96875 L 2.453125 5.796875 C 2.941406 6.054688 3.546875 6.265625 4.265625 6.421875 C 4.992188 6.578125 5.738281 6.65625 6.5 6.65625 C 7.8125 6.65625 8.898438 6.484375 9.765625 6.140625 C 10.640625 5.796875 11.378906 5.226562 11.984375 4.4375 C 12.585938 3.644531 13.125 2.546875 13.59375 1.140625 L 0.703125 -32.3125 L 9.203125 -32.3125 L 17.21875 -9.84375 L 17.921875 -9.84375 L 25.75 -32.3125 L 34 -32.3125 L 21.03125 2.015625 C 20 4.796875 18.859375 7.03125 17.609375 8.71875 C 16.367188 10.40625 14.90625 11.65625 13.21875 12.46875 C 11.53125 13.289062 9.503906 13.703125 7.140625 13.703125 Z M 7.140625 13.703125 "/></g></g><g transform="translate(675.96555, 913.16023)"><g><path d="M 15.109375 0.609375 C 12.898438 0.609375 10.878906 0.351562 9.046875 -0.15625 C 7.210938 -0.675781 5.644531 -1.390625 4.34375 -2.296875 C 3.050781 -3.203125 2.09375 -4.242188 1.46875 -5.421875 L 5.96875 -10.28125 L 6.59375 -10.28125 C 7.664062 -8.832031 8.929688 -7.75 10.390625 -7.03125 C 11.859375 -6.3125 13.453125 -5.953125 15.171875 -5.953125 C 16.753906 -5.953125 17.945312 -6.234375 18.75 -6.796875 C 19.550781 -7.359375 19.953125 -8.164062 19.953125 -9.21875 C 19.953125 -10.039062 19.660156 -10.726562 19.078125 -11.28125 C 18.503906 -11.84375 17.570312 -12.28125 16.28125 -12.59375 L 12.015625 -13.625 C 8.804688 -14.382812 6.460938 -15.550781 4.984375 -17.125 C 3.515625 -18.695312 2.78125 -20.691406 2.78125 -23.109375 C 2.78125 -25.117188 3.289062 -26.863281 4.3125 -28.34375 C 5.34375 -29.832031 6.789062 -30.96875 8.65625 -31.75 C 10.519531 -32.53125 12.691406 -32.921875 15.171875 -32.921875 C 18.078125 -32.921875 20.488281 -32.5 22.40625 -31.65625 C 24.320312 -30.820312 25.816406 -29.703125 26.890625 -28.296875 L 22.546875 -23.609375 L 21.96875 -23.609375 C 21.070312 -24.617188 20.0625 -25.359375 18.9375 -25.828125 C 17.8125 -26.296875 16.554688 -26.53125 15.171875 -26.53125 C 11.972656 -26.53125 10.375 -25.535156 10.375 -23.546875 C 10.375 -22.710938 10.671875 -22.03125 11.265625 -21.5 C 11.859375 -20.96875 12.90625 -20.535156 14.40625 -20.203125 L 18.390625 -19.328125 C 21.671875 -18.628906 24.066406 -17.503906 25.578125 -15.953125 C 27.097656 -14.398438 27.859375 -12.3125 27.859375 -9.6875 C 27.859375 -7.644531 27.347656 -5.84375 26.328125 -4.28125 C 25.316406 -2.71875 23.851562 -1.507812 21.9375 -0.65625 C 20.019531 0.1875 17.742188 0.609375 15.109375 0.609375 Z M 15.109375 0.609375 "/></g></g><g transform="translate(705.753322, 913.16023)"><g><path d="M 8.265625 0.265625 C 7.222656 0.265625 6.304688 0.0546875 5.515625 -0.359375 C 4.722656 -0.785156 4.117188 -1.367188 3.703125 -2.109375 C 3.285156 -2.847656 3.078125 -3.6875 3.078125 -4.625 C 3.078125 -5.5625 3.285156 -6.398438 3.703125 -7.140625 C 4.117188 -7.890625 4.722656 -8.476562 5.515625 -8.90625 C 6.304688 -9.332031 7.222656 -9.546875 8.265625 -9.546875 C 9.316406 -9.546875 10.238281 -9.332031 11.03125 -8.90625 C 11.820312 -8.488281 12.425781 -7.910156 12.84375 -7.171875 C 13.257812 -6.429688 13.46875 -5.59375 13.46875 -4.65625 C 13.46875 -3.226562 12.992188 -2.050781 12.046875 -1.125 C 11.097656 -0.195312 9.835938 0.265625 8.265625 0.265625 Z M 8.265625 0.265625 "/></g></g><g transform="translate(722.302084, 913.16023)"><g><path d="M 8.265625 0.265625 C 7.222656 0.265625 6.304688 0.0546875 5.515625 -0.359375 C 4.722656 -0.785156 4.117188 -1.367188 3.703125 -2.109375 C 3.285156 -2.847656 3.078125 -3.6875 3.078125 -4.625 C 3.078125 -5.5625 3.285156 -6.398438 3.703125 -7.140625 C 4.117188 -7.890625 4.722656 -8.476562 5.515625 -8.90625 C 6.304688 -9.332031 7.222656 -9.546875 8.265625 -9.546875 C 9.316406 -9.546875 10.238281 -9.332031 11.03125 -8.90625 C 11.820312 -8.488281 12.425781 -7.910156 12.84375 -7.171875 C 13.257812 -6.429688 13.46875 -5.59375 13.46875 -4.65625 C 13.46875 -3.226562 12.992188 -2.050781 12.046875 -1.125 C 11.097656 -0.195312 9.835938 0.265625 8.265625 0.265625 Z M 8.265625 0.265625 "/></g></g></g></svg>